<svg xmlns="http://www.w3.org/2000/svg" data-name="Layer 1" viewBox="0 0 64 64"><path fill="#5fa65a" d="M51,50.62616v10a1,1,0,0,1-1,1H14a1,1,0,0,1-1-1v-10a13.035,13.035,0,0,1,13-13l2.25,0a7.55315,7.55315,0,0,0,7.5,0l2.25,0A13.035,13.035,0,0,1,51,50.62616Z"/><path d="M38,38.51785H35.59l-.18.18-3.41,3.4-3.41-3.4-.18-.18a22.5703,22.5703,0,0,0-5.41.35,13.69063,13.69063,0,0,0,2.84,8.22l.87-.86005c1.87985-1.813,3.48126-2.05362,4.97-1.75995l.32-.51.31.51c1.49157-.293,3.09759-.05675,4.98,1.75988l.87.86012a13.70548,13.70548,0,0,0,2.84-8.22A12.8978,12.8978,0,0,0,38,38.51785Z" opacity=".1"/><path fill="#487c45" d="M41,37.86782a13.69065,13.69065,0,0,1-2.84,8.22l-.87-.86005c-1.881-1.81624-3.49021-2.05345-4.98-1.75995-.19918-.33223-.80749-1.31624-1.02-1.66.59915-.60141,3.65075-3.64091,4.3-4.29A22.57011,22.57011,0,0,1,41,37.86782Z"/><path fill="#487c45" d="M32.71,41.80783c-.21661.35124-.81771,1.32626-1.03,1.66-1.49036-.29315-3.08877-.05352-4.97,1.75988l-.87.86012a13.70543,13.70543,0,0,1-2.84-8.22,22.57412,22.57412,0,0,1,5.41-.35C29.06908,38.17671,32.10041,41.19609,32.71,41.80783Z"/><path d="M16.3439,44.93791a1.00644,1.00644,0,0,1-.96844-1.55964c.68954-1.17247,5.18-5.67207,6.22781-3.58809a.99919.99919,0,0,1-.49912,1.32269A10.00708,10.00708,0,0,0,17.017,44.51946.99632.99632,0,0,1,16.3439,44.93791Z" opacity=".1"/><path fill="#f5d51e" d="M16.3439,44.22943a1.00644,1.00644,0,0,1-.96844-1.55963c.68954-1.17248,5.18-5.67207,6.22781-3.5881a.99921.99921,0,0,1-.49912,1.3227A10.00705,10.00705,0,0,0,17.017,43.811.99625.99625,0,0,1,16.3439,44.22943Z"/><path d="M47.6561,44.93791a1.00644,1.00644,0,0,0,.96844-1.55964c-.68954-1.17247-5.18-5.67207-6.22781-3.58809a.99919.99919,0,0,0,.49912,1.32269A10.00708,10.00708,0,0,1,46.983,44.51946.99632.99632,0,0,0,47.6561,44.93791Z" opacity=".1"/><path fill="#f5d51e" d="M47.6561,44.22943a1.00644,1.00644,0,0,0,.96844-1.55963c-.68954-1.17248-5.18-5.67207-6.22781-3.5881a.99921.99921,0,0,0,.49912,1.3227A10.00705,10.00705,0,0,1,46.983,43.811.99625.99625,0,0,0,47.6561,44.22943Z"/><path fill="#487c45" d="M31 54.83892a1.00011 1.00011 0 0 1 2 .00005A1.00011 1.00011 0 0 1 31 54.83892zm0-4a1.00011 1.00011 0 0 1 2 .00005A1.00011 1.00011 0 0 1 31 50.83892zm0-4a1.00011 1.00011 0 0 1 2 .00005A1.00011 1.00011 0 0 1 31 46.83892zM45 51.83892H39a1 1 0 0 1 0-2h6A1.00019 1.00019 0 0 1 45 51.83892z"/><path fill="#ffc490" d="M27,33.83892v4.99985a1,1,0,0,0,.29289.70711l4,4a1,1,0,0,0,1.41422,0l4-4A1,1,0,0,0,37,38.83877V33.83892Z"/><path d="M37,32.83892v4.16a14.175,14.175,0,0,1-10,0v-4.16Z" opacity=".1"/><path fill="#ffc490" d="M47,19.83892a5.00857,5.00857,0,0,1-4,4.9,10.13617,10.13617,0,0,1-10.0001,11.1L31,35.83892a10.13621,10.13621,0,0,1-10-11.1,5.006,5.006,0,0,1-3.99-4.6l1-.06,4.99-4.24v-1H41.92A5.03073,5.03073,0,0,1,47,19.83892Z"/><path d="M42.87,18.36889a.99485.99485,0,0,1-.87,1.47l-18,0a4.0134,4.0134,0,0,1-5.25005,3.78992A4.92314,4.92314,0,0,1,17.01,20.13891l1-.06,4.99-4.24v-1H41.92a5.08815,5.08815,0,0,1,3.17,1.09A8.86029,8.86029,0,0,1,42.87,18.36889Z" opacity=".1"/><path fill="#487c45" d="M42,17.83892H23a1.00019,1.00019,0,0,1,.00007-2l18.99993,0A1.0002,1.0002,0,0,1,42,17.83892Z"/><path fill="#5fa65a" d="M39.65478,3.461C29.4916-.80684,15.84882,5.82239,16.00016,17.66912c.37292,6.10374,8.70015,5.19585,7.99984-.8302H42.23926C48.31041,12.80017,46.64042,6.1795,39.65478,3.461Z"/></svg>