<svg xmlns="http://www.w3.org/2000/svg" xmlns:xlink="http://www.w3.org/1999/xlink" width="512" height="512"><g transform="translate(0 -540.362)"><g transform="matrix(.96 0 0 .96 10.24 41.454)"><path fill="#e32d3c" d="M 256 16 A 240 240 0 0 0 30.03125 176 L 482.00391 176 A 240 240 0 0 0 256 16 z " transform="matrix(1.04167 0 0 1.04167 -10.667 519.696)"/><path fill="#fff" d="M 30.03125 176 A 240 240 0 0 0 16 256 A 240 240 0 0 0 29.996094 336 L 481.96875 336 A 240 240 0 0 0 496 256 A 240 240 0 0 0 482.00391 176 L 30.03125 176 z " transform="matrix(1.04167 0 0 1.04167 -10.667 519.696)"/><path fill="#222" d="M 29.996094 336 A 240 240 0 0 0 256 496 A 240 240 0 0 0 481.96875 336 L 29.996094 336 z " transform="matrix(1.04167 0 0 1.04167 -10.667 519.696)"/></g><g transform="translate(-98.451 560.011) scale(.78766)"><g fill="#fff" stroke="#c09300" stroke-width="1.241"><path style="line-height:normal;text-indent:0;text-align:start;text-decoration-line:none;text-decoration-style:solid;text-decoration-color:#000;text-transform:none;block-progression:tb;white-space:normal;isolation:auto;mix-blend-mode:normal;solid-color:#000;solid-opacity:1" fill="#c09300" stroke="none" d="m 395.14453,237.20703 c -2.78787,0.20866 -5.34059,1.23755 -7.18945,3.39844 -1.84887,2.16089 -2.96812,5.38093 -3.15235,9.87109 l -4.8789,115.46875 a 0.78825166,0.78825166 0 0 0 1.31836,0.61719 l 69.56054,-63.0918 67.95899,63.08594 a 0.78825166,0.78825166 0 0 0 1.32422,-0.61133 l -4.87696,-115.46875 c -0.1838,-4.4901 -1.30157,-7.71017 -3.15039,-9.87109 -1.84881,-2.16092 -4.40142,-3.18974 -7.18945,-3.39844 -5.57606,-0.4174 -12.21232,2.24738 -17.80859,5.44531 a 0.78825166,0.78825166 0 0 0 -0.0352,0.0215 c -10.96172,7.02535 -23.41844,7.03927 -36.75977,2.35547 a 0.78825166,0.78825166 0 0 0 -0.52148,0 c -13.33826,4.68377 -25.79611,4.66987 -36.75781,-2.35547 a 0.78825166,0.78825166 0 0 0 -0.0332,-0.0215 c -5.59575,-3.19772 -12.23285,-5.86262 -17.80859,-5.44531 z m 0.11719,1.57227 c 4.96826,-0.37184 11.45796,2.12761 16.9082,5.24218 L 412.13672,244 c 11.34687,7.2722 24.33216,7.28092 37.86914,2.58594 13.5392,4.69432 26.52474,4.68592 37.87109,-2.58594 l -0.0352,0.0215 c 5.45072,-3.11476 11.94155,-5.61411 16.91015,-5.24218 2.4843,0.18596 4.55811,1.04069 6.10743,2.85156 1.54931,1.81087 2.601,4.65025 2.77539,8.91016 a 0.78825166,0.78825166 0 0 0 0,0.002 l 4.79492,113.55273 -67.05078,-62.24218 a 0.78825166,0.78825166 0 0 0 -0.0332,-0.0312 0.78825166,0.78825166 0 0 0 -0.53515,-0.21094 0.78825166,0.78825166 0 0 0 -0.5293,0.20508 0.78825166,0.78825166 0 0 0 -0.0371,0.0351 l -68.66406,62.27735 4.79883,-113.58594 a 0.78825166,0.78825166 0 0 0 0,-0.002 c 0.17477,-4.25999 1.226,-7.09929 2.77539,-8.91016 1.54938,-1.81087 3.62329,-2.66564 6.10742,-2.85156 z" color="#000" enable-background="accumulate" font-family="sans-serif" font-weight="400" overflow="visible"/><g id="a" fill="#c09300" stroke="none"><path d="M393.47 246.49l-4.7342 112.32-8.0347 7.168 4.8784-115.47c2.2949-1.5782 6.3132-4.0171 7.8905-4.0171zM403.09 254.53l-4.0171 93.955-8.0323 8.2204 4.8772-108.49c1.5791 1.577 6.3138 5.4498 7.1721 6.3104zM411.84 261.7l-3.1545 78.362-6.4556 6.3092 4.0177-89.405c1.5748 1.5782 4.7311 3.8734 5.5924 4.7334zM421.31 265.72l-3.1563 66.787-6.3132 5.1193 3.1563-74.344c1.5791.71638 4.7348 2.4376 6.3132 2.4376zM430.06 265.72l-2.2974 55.657-6.4544 6.3129 2.4392-61.252c1.576-.00061 5.5937-.00061 6.3126-.7182z"/></g><use width="744.094" height="1052.362" transform="matrix(-1 0 0 1 900 0)" xlink:href="#a"/><path fill="#c09300" stroke-width="1.333" d="m 453.16,315.06 9.6126,43.755 -3.1575,3.1552 -3.2993,-2.4388 -5.4518,-39.018 2.2955,39.018 -3.1569,4.0158 -3.1563,-4.0158 2.2962,-39.018 -5.4506,39.018 -3.3024,2.4388 -3.1545,-3.1552 9.6113,-43.755 6.3138,0 z"/><g id="b" fill="none" stroke-linejoin="round" stroke-width="1.577"><path fill="#fff" stroke-width="1.475" d="m 428.48,295.84 -19.08,67.705 26.255,4.0177 11.188,-50.924 -18.363,-20.799 z"/><path d="m 422.17,318.94 2.2955,5.5928 12.405,-11.848"/><path d="M430.76 304.92l2.5957 24.346 7.8905-10.328M438.09 322.95l4.31 14.875M444.09 332.36l-8.7177 13.241m2.7189 13.216l-2.7902-13.198-2.4356-13.423-5.8406 7.9091-2.5613-9.1191-8.1747 8.3847 4.1575 15.251 5.7375-9.4349 3.1557 9.6123 5.8903-9.1621"/><path d="m 414.99,361.97 5.2997,-7.4437 3.4528,11.457 4.7342,-8.0323 3.1575,9.6136"/></g><use width="744.094" height="1052.362" transform="matrix(-1 0 0 1 900 0)" xlink:href="#b"/><g stroke-linecap="round" stroke-linejoin="round" stroke-width="1.577"><path style="line-height:normal;text-indent:0;text-align:start;text-decoration-line:none;text-decoration-style:solid;text-decoration-color:#000;text-transform:none;block-progression:tb;white-space:normal;isolation:auto;mix-blend-mode:normal;solid-color:#000;solid-opacity:1" fill="#c09300" stroke="none" d="m 404.29102,363.78516 c -1.33997,-0.0761 -2.66176,0.0608 -3.88672,0.48046 -2.06439,0.70726 -3.68825,2.5143 -4.17188,5.01954 -0.7744,0.10492 -1.49983,0.32768 -2.0625,0.71484 -0.93106,0.64065 -1.56596,1.46107 -2.125,2.17578 -0.55904,0.71472 -1.05229,1.32982 -1.41992,1.6211 -0.36763,0.29127 -0.41676,0.32492 -0.79297,0.22656 l -0.008,0.0566 c -0.12867,-0.0167 -0.23395,-0.10547 -0.36524,-0.10547 a 1.4754201,1.4754201 0 0 0 -0.37304,2.90234 c 0.12999,0.034 0.2493,-0.0222 0.3789,-0.004 l -0.006,0.0527 c 0.40784,0 0.18494,-0.0835 0.31446,0.14649 0.12951,0.22995 0.30737,0.89199 0.51367,1.72656 0.2063,0.83457 0.4783,1.85631 1.125,2.84375 0.47923,0.73173 1.26218,1.3551 2.19336,1.85937 0.007,1.30674 0.0628,2.63636 0.76562,3.91797 0.85742,1.56341 2.62238,2.62809 5.2793,3.10156 11.36455,3.22337 30.39435,4.76368 50.34961,4.76368 19.95986,0 38.9938,-1.54329 50.49219,-4.76368 2.59847,-0.47496 4.3348,-1.55599 5.16601,-3.11718 0.68044,-1.27801 0.73405,-2.60058 0.74024,-3.9043 0.93012,-0.50415 1.71257,-1.12626 2.1914,-1.85742 0.64671,-0.98749 0.92073,-2.01113 1.12696,-2.8457 0.20622,-0.83458 0.38225,-1.49473 0.51172,-1.72461 0.12946,-0.22989 -0.0936,-0.14649 0.31445,-0.14649 l -0.006,-0.0527 c 0.12961,-0.0183 0.2489,0.0379 0.37891,0.004 a 1.4754201,1.4754201 0 0 0 -0.37305,-2.90234 c -0.13144,0 -0.23643,0.0888 -0.36524,0.10547 l -0.008,-0.0566 c -0.37647,0.0984 -0.42536,0.0647 -0.79297,-0.22656 -0.36761,-0.29125 -0.86103,-0.90642 -1.41992,-1.6211 -0.55889,-0.71468 -1.19416,-1.53508 -2.125,-2.17578 -0.56244,-0.38713 -1.28639,-0.60986 -2.06055,-0.71484 -0.48352,-2.50604 -2.10861,-4.31225 -4.17382,-5.01954 -2.45051,-0.83923 -5.28681,-0.5473 -7.88282,0.31641 a 1.4754201,1.4754201 0 0 0 -0.002,0 c -9.0342,3.01245 -25.82263,3.79837 -41.69922,3.79883 -15.95088,-0.7173 -32.60344,-0.8038 -41.72656,-3.79883 l -0.006,-0.002 c -1.29613,-0.43077 -2.65228,-0.71899 -3.99023,-0.79492 z m -0.16211,2.9707 c 1.04017,0.0578 2.15736,0.26925 3.22656,0.625 a 1.4754201,1.4754201 0 0 0 0.006,0.002 c 10.09171,3.31521 26.69444,3.23177 42.57226,3.94727 a 1.4754201,1.4754201 0 0 0 0.0664,0.002 c 15.96932,0 32.74432,-0.6493 42.64648,-3.95117 2.1385,-0.71149 4.46523,-0.84851 5.9961,-0.32422 1.53087,0.52429 2.39258,1.35553 2.39258,3.66211 a 1.4754201,1.4754201 0 0 0 1.78515,1.44141 c 0.62612,-0.13444 0.90344,-0.0309 1.33985,0.26953 0.4364,0.30037 0.93788,0.88061 1.47265,1.56445 0.52519,0.67158 1.08067,1.43532 1.87696,2.07813 -0.30436,0.69986 -0.50433,1.39485 -0.65821,2.01757 -0.188,0.76082 -0.39788,1.43265 -0.72851,1.9375 -0.33064,0.50486 -0.74082,0.89359 -1.64063,1.19336 a 1.4754201,1.4754201 0 0 0 -1.00976,1.40039 c 0,1.57885 -0.0674,2.73794 -0.41797,3.39649 -0.35063,0.65855 -0.97903,1.22177 -3.10547,1.60742 a 1.4754201,1.4754201 0 0 0 -0.13672,0.0312 c -10.89082,3.07228 -29.9473,4.67773 -49.8125,4.67773 -19.86219,0 -38.9239,-1.60705 -49.66211,-4.67578 a 1.4754201,1.4754201 0 0 0 -0.15039,-0.0352 c -2.20403,-0.38805 -2.87167,-0.96687 -3.23047,-1.6211 -0.35879,-0.65422 -0.42773,-1.80206 -0.42773,-3.38086 a 1.4754201,1.4754201 0 0 0 -1.00977,-1.40039 c -0.89964,-0.29975 -1.30799,-0.68845 -1.63867,-1.19336 -0.33068,-0.50491 -0.54239,-1.17667 -0.73047,-1.9375 -0.15394,-0.62272 -0.35382,-1.31776 -0.6582,-2.01757 0.79624,-0.64277 1.35168,-1.40658 1.87695,-2.07813 0.53486,-0.6838 1.03798,-1.26206 1.47461,-1.5625 0.43663,-0.30044 0.71334,-0.40595 1.33984,-0.27148 a 1.4754201,1.4754201 0 0 0 1.78516,-1.44141 c 0,-2.30682 0.8606,-3.13793 2.39063,-3.66211 0.76501,-0.26209 1.72935,-0.35855 2.76953,-0.30078 z" color="#000" enable-background="accumulate" font-family="sans-serif" font-weight="400" overflow="visible"/><path d="M422.89 363.54c6.4544.86123 13.628 1.5776 19.225.86123 3.1533 0 5.4494 5.4504-.86257 6.3129-5.5931.71515-14.345 0-19.08-.86245-4.0171-.71759-12.768-2.2946-18.364-3.8752-5.5949-2.4364-1.576-7.168 1.5772-6.4522 4.879 1.577 11.192 3.1564 17.505 4.0158zM477.12 363.54c-6.4569.86123-13.628 1.5776-19.081.86123-3.3006 0-5.5961 5.4504.71711 6.3129 5.5955.71515 14.347 0 19.078-.86245 4.0189-.71759 12.769-2.2946 18.364-3.8752 5.5967-2.4364 1.5803-7.168-1.5772-6.4522-4.8778 1.577-11.19 3.1564-17.501 4.0158z"/><path d="m 403.09,360.39 c -4.8771,-0.86123 -7.1723,4.7316 -5.5928,7.8868 0.71637,-1.5776 4.0164,-1.5776 4.7346,-3.1552 0.8582,-2.437 -0.7182,-2.437 0.8582,-4.7316 z"/><path style="line-height:normal;text-indent:0;text-align:start;text-decoration-line:none;text-decoration-style:solid;text-decoration-color:#000;text-transform:none;block-progression:tb;white-space:normal;isolation:auto;mix-blend-mode:normal;solid-color:#000;solid-opacity:1" fill="#c09300" stroke="none" d="m 422.88867,364.33398 c -1.05186,0 -2.01255,0.49944 -2.72851,1.21485 -0.69157,0.69102 -1.16259,1.61724 -1.19532,2.62695 -0.37254,1.78493 0.38344,3.05809 1.0918,3.97656 0.71967,0.93314 1.32422,1.59531 1.32422,2.90821 a 0.78906,0.78906 0 0 0 1.57812,0 c 0,-1.3135 0.51985,-1.67535 1.3086,-2.36719 0.78875,-0.69184 1.8457,-1.71388 1.8457,-3.55469 0,-0.93162 -0.23098,-2.0148 -0.71289,-2.95898 -0.48191,-0.94418 -1.31643,-1.84571 -2.51172,-1.84571 z" color="#000" enable-background="accumulate" font-family="sans-serif" font-weight="400" overflow="visible"/><path style="line-height:normal;text-indent:0;text-align:start;text-decoration-line:none;text-decoration-style:solid;text-decoration-color:#000;text-transform:none;block-progression:tb;white-space:normal;isolation:auto;mix-blend-mode:normal;solid-color:#000;solid-opacity:1" stroke="none" d="m 422.88867,365.91016 c 0.38258,0 0.7654,0.31621 1.10742,0.98632 0.34203,0.67012 0.54102,1.59681 0.54102,2.24219 0,1.31559 -0.52205,1.67753 -1.31055,2.36914 -0.31371,0.27516 -0.65347,0.66006 -0.96875,1.07031 -0.30508,-0.52858 -0.65374,-1.00048 -0.95312,-1.38867 -0.67966,-0.88126 -1.10821,-1.41177 -0.80664,-2.73828 a 0.78837571,0.78837571 0 0 0 0.0195,-0.17383 c 0,-0.5258 0.2877,-1.14548 0.75586,-1.61328 0.46816,-0.46779 1.0886,-0.7539 1.61523,-0.7539 z" color="#000" enable-background="accumulate" font-family="sans-serif" font-weight="400" overflow="visible"/><path style="line-height:normal;text-indent:0;text-align:start;text-decoration-line:none;text-decoration-style:solid;text-decoration-color:#000;text-transform:none;block-progression:tb;white-space:normal;isolation:auto;mix-blend-mode:normal;solid-color:#000;solid-opacity:1" fill="#c09300" stroke="none" d="m 444.88086,365.19141 a 0.78837571,0.78837571 0 0 0 -0.65039,1.23437 c 0.31404,0.45777 0.27658,0.57491 0.24414,0.67383 -0.0324,0.0989 -0.20484,0.31414 -0.53516,0.58984 -0.33032,0.2757 -0.7778,0.60181 -1.17383,1.07813 -0.39602,0.47631 -0.7246,1.14559 -0.7246,1.95117 0,0.72882 0.44095,1.26591 0.88867,1.66797 0.44771,0.40206 0.96799,0.73376 1.45703,1.07422 0.48904,0.34045 0.94362,0.68623 1.24023,1.02344 0.29662,0.3372 0.42969,0.62095 0.42969,0.96484 a 0.78837571,0.78837571 0 0 0 1.42578,0.46484 c 1.28025,-1.75951 2.01072,-4.24336 1.80078,-6.45703 -0.10497,-1.10683 -0.45999,-2.16719 -1.19531,-2.97265 -0.73532,-0.80547 -1.84904,-1.29297 -3.20703,-1.29297 z" color="#000" enable-background="accumulate" font-family="sans-serif" font-weight="400" overflow="visible"/><path style="line-height:normal;text-indent:0;text-align:start;text-decoration-line:none;text-decoration-style:solid;text-decoration-color:#000;text-transform:none;block-progression:tb;white-space:normal;isolation:auto;mix-blend-mode:normal;solid-color:#000;solid-opacity:1" stroke="none" d="m 445.83008,366.92969 c 0.44953,0.13139 0.82569,0.32356 1.09375,0.61719 0.4355,0.47704 0.70692,1.19242 0.78906,2.05859 0.11912,1.25603 -0.28059,2.69266 -0.84766,3.9707 -0.0294,-0.0358 -0.0245,-0.0984 -0.0547,-0.13281 -0.45646,-0.51893 -1.00838,-0.91682 -1.52344,-1.27539 -0.51506,-0.35857 -0.99738,-0.68086 -1.30273,-0.95508 -0.30536,-0.27422 -0.36719,-0.43506 -0.36719,-0.49414 0,-0.41537 0.12471,-0.66113 0.35937,-0.94336 0.23466,-0.28223 0.59531,-0.55841 0.97461,-0.875 0.37931,-0.31659 0.8171,-0.68535 1.02149,-1.30859 0.0657,-0.20046 -0.13266,-0.44252 -0.14258,-0.66211 z" color="#000" enable-background="accumulate" font-family="sans-serif" font-weight="400" overflow="visible"/><path d="m 496.91,360.39 c 4.8777,-0.86123 7.1741,4.7316 5.5953,7.8868 -0.71819,-1.5776 -4.017,-1.5776 -4.734,-3.1552 -0.86124,-2.437 0.71759,-2.437 -0.86124,-4.7316 z"/><path style="line-height:normal;text-indent:0;text-align:start;text-decoration-line:none;text-decoration-style:solid;text-decoration-color:#000;text-transform:none;block-progression:tb;white-space:normal;isolation:auto;mix-blend-mode:normal;solid-color:#000;solid-opacity:1" fill="#c09300" stroke="none" d="m 477.11523,364.33398 c -1.19543,0 -2.03149,0.90151 -2.51367,1.84571 -0.48217,0.94419 -0.71289,2.02726 -0.71289,2.95898 0,1.8407 1.05728,2.86285 1.84571,3.55469 0.78842,0.69184 1.30664,1.05359 1.30664,2.36719 a 0.78837571,0.78837571 0 0 0 0.78906,0.78711 0.78837571,0.78837571 0 0 0 0.78906,-0.78711 c 0,-1.31279 0.60425,-1.97508 1.32422,-2.90821 0.70865,-0.91846 1.46435,-2.19154 1.0918,-3.97656 -0.0327,-1.0097 -0.50199,-1.93401 -1.19336,-2.625 -0.71578,-0.71538 -1.67513,-1.2168 -2.72657,-1.2168 z" color="#000" enable-background="accumulate" font-family="sans-serif" font-weight="400" overflow="visible"/><path style="line-height:normal;text-indent:0;text-align:start;text-decoration-line:none;text-decoration-style:solid;text-decoration-color:#000;text-transform:none;block-progression:tb;white-space:normal;isolation:auto;mix-blend-mode:normal;solid-color:#000;solid-opacity:1" stroke="none" d="m 477.11523,365.91016 c 0.52577,0 1.14326,0.28609 1.61133,0.7539 0.46807,0.46782 0.75586,1.0875 0.75586,1.61328 a 0.78837571,0.78837571 0 0 0 0.0195,0.17383 c 0.30155,1.32641 -0.12668,1.85701 -0.80664,2.73828 -0.29952,0.3882 -0.64791,0.86007 -0.95312,1.38867 -0.31498,-0.40982 -0.6554,-0.79534 -0.96875,-1.07031 -0.78818,-0.69161 -1.3086,-1.05344 -1.3086,-2.36914 0,-0.64528 0.19881,-1.57208 0.54102,-2.24219 0.34221,-0.6701 0.72634,-0.98632 1.10937,-0.98632 z" color="#000" enable-background="accumulate" font-family="sans-serif" font-weight="400" overflow="visible"/><path style="line-height:normal;text-indent:0;text-align:start;text-decoration-line:none;text-decoration-style:solid;text-decoration-color:#000;text-transform:none;block-progression:tb;white-space:normal;isolation:auto;mix-blend-mode:normal;solid-color:#000;solid-opacity:1" fill="#c09300" stroke="none" d="m 455.11914,365.19141 c -1.35837,0 -2.47148,0.48752 -3.20703,1.29297 -0.73556,0.80544 -1.09026,1.8658 -1.19531,2.97265 -0.21011,2.21371 0.51894,4.69755 1.79882,6.45703 a 0.78837571,0.78837571 0 0 0 1.42579,-0.46484 c 0,-0.34393 0.13312,-0.62765 0.42968,-0.96484 0.29657,-0.3372 0.75127,-0.68299 1.24024,-1.02344 0.48896,-0.34046 1.00937,-0.67215 1.45703,-1.07422 0.44766,-0.40207 0.88867,-0.9392 0.88867,-1.66797 2e-4,-0.80561 -0.32865,-1.47483 -0.72461,-1.95117 -0.39596,-0.47634 -0.84366,-0.80246 -1.17383,-1.07813 -0.33017,-0.27566 -0.50288,-0.48923 -0.53515,-0.58789 -0.0323,-0.0987 -0.0685,-0.21786 0.24609,-0.67578 a 0.78837571,0.78837571 0 0 0 -0.65039,-1.23437 z" color="#000" enable-background="accumulate" font-family="sans-serif" font-weight="400" overflow="visible"/><path style="line-height:normal;text-indent:0;text-align:start;text-decoration-line:none;text-decoration-style:solid;text-decoration-color:#000;text-transform:none;block-progression:tb;white-space:normal;isolation:auto;mix-blend-mode:normal;solid-color:#000;solid-opacity:1" stroke="none" d="m 454.16797,366.92969 c -0.0101,0.21955 -0.20817,0.4616 -0.14258,0.66211 0.20398,0.62351 0.64225,0.99197 1.02149,1.30859 0.37923,0.31663 0.74001,0.59279 0.9746,0.875 0.23459,0.28221 0.35948,0.52802 0.35938,0.94336 0,0.0591 -0.0619,0.21993 -0.36719,0.49414 -0.3053,0.27421 -0.78775,0.59651 -1.30273,0.95508 -0.51499,0.35857 -1.06704,0.75646 -1.52344,1.27539 -0.0302,0.0344 -0.0253,0.097 -0.0547,0.13281 -0.56686,-1.27798 -0.96685,-2.71481 -0.84765,-3.9707 0.0822,-0.86615 0.35534,-1.58153 0.79101,-2.05859 0.26809,-0.29356 0.64222,-0.48575 1.0918,-0.61719 z" color="#000" enable-background="accumulate" font-family="sans-serif" font-weight="400" overflow="visible"/><g stroke-width="1.106"><path style="line-height:normal;text-indent:0;text-align:start;text-decoration-line:none;text-decoration-style:solid;text-decoration-color:#000;text-transform:none;block-progression:tb;white-space:normal;isolation:auto;mix-blend-mode:normal;solid-color:#000;solid-opacity:1" fill="#c09300" stroke="none" d="M404.67773 361.41406a.55319715.55319715 0 00-.31054 1.01953l.006.002a.55319715.55319715 0 00.11718.0566.55319715.55319715 0 00.0391.0137l4.70117 1.56641a.55319715.55319715 0 00.59961-.87891c-.0587-.0702-.19833-.0842-.26563-.14844l.0156-.0234-.14453-.0488c-.51089-.44072-1.12171-.81154-1.90625-1.0625-.8824-.28227-1.8301-.43715-2.66407-.46094l-.0254-.008a.55319715.55319715 0 00-.16211-.0274zM412.53125 363.85156a.55319715.55319715 0 00-.40625.91211l.004.006a.55319715.55319715 0 00.33007.18555l5.53711 1.5625A.55319715.55319715 0 00418.41016 365.5c-.0313-.017-.0831-.0242-.11524-.041l.002-.006-.0703-.0195c-.8532-.43675-1.95253-.81745-3.00781-1.09375-1.01555-.26589-1.82747-.40607-2.41992-.4375l-.10352-.0293a.55319715.55319715 0 00-.16406-.0215zM441.2168 367.00195a.55319715.55319715 0 00-.041.004l-.041.006c-.78802.00007-1.91186-.003-2.9961.0859-.56297.046-1.10789.11478-1.58984.22461-.36786.0838-.66211.23419-.95117.40234l-.0117.002.002.002c-.0865.0509-.20668.0557-.28516.12109a.55319715.55319715 0 00.42579.97461l5.2246-.67383-.0156-.0273c.0892-.00011.23091-.01.3125-.01a.55319715.55319715 0 00.47852-.83008l-.002-.006a.55319715.55319715 0 00-.50976-.27539zM429.97266 366.35938c-1.05853 0-2.13429.23871-3.02344.64843l-.043 0 .002.01c-.0781.0368-.19335.016-.26758.0566a.55319715.55319715 0 00.26563 1.03906l5.58984 0 .004 0a.55319715.55319715 0 00.39258-.94336c-.66858-.67142-1.75334-.81054-2.91992-.81054zM495.33984 361.41602c-.054 0-.1188.0298-.17382.0312l0-.002-.008.002c-.83168.0227-1.75865.17957-2.62695.46289-.80564.26287-1.47099.64021-2.01172 1.08203l-.0898.0293.008.0137c-.0586.0504-.17129.0678-.22461.12109a.55319715.55319715 0 00.56641.91602l4.73632-1.57813a.55319715.55319715 0 00-.17578-1.07812zM487.42383 363.85352a.55319715.55319715 0 00-.11914.0195l-.10352.0293c-.59192.0314-1.40439.17161-2.41992.4375-1.0579.27699-2.16142.65753-3.01563 1.09571l-.0605.0176.002.004c-.0328.0172-.0853.0256-.11719.043a.55319715.55319715 0 00.41602 1.01758l5.54492-1.56446.01-.002a.55319715.55319715 0 00.28515-.15429l.004-.004a.55319715.55319715 0 00-.42578-.93945zM458.75977 367.00195a.55319715.55319715 0 00-.41211.93946l.006.004a.55319715.55319715 0 00.39648.16797l5.52539.71094a.55319715.55319715 0 00.42383-.97461c-.0785-.0653-.19868-.0702-.28516-.12109l.002-.002-.0117-.002c-.28918-.16803-.58322-.31853-.95118-.40234-.48207-.10982-1.02675-.1786-1.58984-.22461-1.08801-.0889-2.21876-.0859-3.00781-.0859l-.0391-.006a.55319715.55319715 0 00-.0566-.004zM470.0293 366.35938c-1.16687 0-2.25281.13959-2.92188.81054l.38867-.16015 0 1.10351.004 0 5.5957 0a.55319715.55319715 0 00.26563-1.03906c-.0742-.0406-.18949-.0198-.26758-.0566l.002-.01-.043 0c-.88919-.40973-1.96465-.64843-3.02343-.64843z" color="#000" enable-background="accumulate" font-family="sans-serif" font-weight="400" overflow="visible"/></g><g fill="#c09300" stroke="none"><path d="M403.34 374.58c-.53406-.10208-.81452-.52459-.68011-1.0246.16371-.609.65161-.95739 1.1126-.79442.29312.10362.82973.64469.83184.83874.003.22275-.28059.75257-.40266.75379-.0527.00053-.1342.0465-.18122.10201-.10001.11816-.41341.17549-.68041.12446zM458.27 378.5c-.19869-.0736-.51521-.5185-.51485-.72377.002-.38717.57418-1.0178.92881-1.0214.17516-.001.65475.2481.83411.43462.32504.33789.25419.89278-.15423 1.2079-.20096.15505-.80025.21125-1.0938.1026zM458.63 380.98c-.42018-.14209-.57388-.34776-.60803-.8136-.0355-.4854.0116-.56097.52453-.84064l.36556-.19931.34646.1545c.47988.21397.69338.44463.71031.76742.0182.34768-.2397.70345-.64012.8829-.35162.15758-.37253.15904-.69871.0488z"/><path d="M407.75 370.09c-.34619-.0109-.82136.30729-1.0938.46875-.64912.15215-1.4047.5511-2.0312.125-.61719-.19079-1.438-.0404-1.5312.71875.15839.65179 1.0715 1.0243 1.625.59375.4106-.53758 1.5312-.8528 1.6562.0625-.45705.69215-.40489 1.6089-.78125 2.3438-.0612.45773-.25176.8924-.5 1.2812-.4621.0464-.95375-.008-1.3438.28125-.62601.0342-1.2647.34537-1.625.875-.40338.57818-.78869 1.1654-.90625 1.875.10725.72494.93754.93275 1.5625.96875.66694.18359 1.3344.42433 2 .625 1.0853.24303 2.102.63539 3.1875.875 1.5844.47758 3.2479.69739 4.8438 1.125.16722.0555.32405.1038.5.125.66233.13773 1.0079-.58289 1.0625-1.125.32864-1.1596.57948-2.3391.90625-3.5.22487-.46559.49645-1.5172-.40625-1.2812-.51485.30872-.95182.7734-1.5938.8125-.87392.0509-.37513.94518-.0312 1.3125.0759.5872-.10989 1.2888-.5 1.75-.51994.32957-1.1716-.0561-1.7188-.1875-.57469.01-1.7234-.28325-1.1875-1.0625.19033-.57691.20718-1.2083.4375-1.7812.29353-.61455.33553-1.2851.46875-1.9375-.36122-.77733-.97856.25585-1.4688.34375-.33769.23455-1.6054.33418-.9375.9375.57518.43696.1343 1.1967.0312 1.75-.0369.77025-.83781.95394-1.4688.78125-.62768-.0303-1.5013-.49748-.96875-1.1875.12115-.57512.322-1.1402.4375-1.7188.2374-.69777.43732-1.3628.6875-2.0625.10851-.61996.33113-1.2079.625-1.75.0173-.68543.47775-1.2752.46875-1.9688-.0469-.33876-.19853-.4622-.40625-.46875zm-3.5938 7.25c.0817-.0141.1399-.002.21875.0312.24971.10625.25708.30938 0 .53125-.11238.097-.23995.1905-.28125.1875-.46771-.0402-.6056-.10974-.625-.28125-.0172-.15117.0307-.19455.34375-.34375.15556-.0742.26207-.11086.34375-.125zM403.12 382.36c-.49596-.46627-.41621-.80642.31729-1.3532.31384-.23393.50421-.20747.8631.11997.55237.50393.57448.82295.0869 1.2548-.24101.21344-.34645.25721-.62697.26001-.29347.003-.3766-.0334-.64036-.28155zM406.17 383.28c-.48488-.11955-.76441-.60787-.62254-1.0876.12852-.43459.20285-.47736.84026-.48378.71478-.007.85352.11244.86039.74185.004.35432-.0235.43652-.19971.60041-.2071.19261-.6052.29644-.8784.22908zM495.28 383.36c-.22701-.18894-.27272-.27435-.27532-.51479-.003-.41064.23349-.71172.74605-.94382.68183-.30882.95981-.26636 1.2166.18575.34158.60129.32512.84675-.0839 1.252-.22578.22366-.26805.2367-.78493.2419-.50756.003-.56562-.0105-.8185-.22102zM410.22 384.51c-.36389-.0971-.5525-.37016-.55726-.80675-.004-.33383.0201-.38706.25362-.56985.15122-.11834.39018-.21971.57856-.24541.2669-.0365.36442-.0132.57916.13775.55052.38698.66746.76972.3487 1.1412-.33953.39572-.66141.48753-1.2028.34303zM432.14 385.49c-.0807-.10062-.25916-.16012-.2775-.287.032-.55487.0585-1.1167.23525-1.6482.0962-.52301.012-1.0692.19432-1.5787.18698-.92682.18682-1.8826.40217-2.8036.01-.47427.0549-.949.19241-1.4054.15774-.72168.0136-1.4762.22606-2.1894-.0228-.26786.28574-.98321.55658-.55944.39321.57645.91139 1.0451 1.4208 1.5153.43771.25252.0359.62445-.26658.74975-.41521.16364-.51613.62086-.48666 1.0222-.0582.41455-.22464.80685-.24153 1.23-.0878.62242-.0706 1.2546-.15153 1.8765-.18211.60901-.11244 1.2597-.17323 1.8875.008.39859-.18142.7606-.15525 1.1604-.0484.40592-.0665.89432-.40713 1.1724-.32888.16605-.80429.13737-1.0682-.14228zM461.84 375.69c-.48222.36463-.91353.79527-1.3438 1.2188-.59251.4489.48677.70998.625 1.0938.15716.58638.1478 1.2106.1875 1.8125.17923.55142.25835 1.1384.21875 1.7188-.0519.6223-.86338.49115-1.2188.84375-.49176.20722-.68789.69047-1.0625 1.0312-.24625.48275-.31215 1.0763-.34375 1.625.0353.44788-.30248.94931 0 1.3438.039.0557.0852.132.125.1875.10115.1452.3425.0292.5.0625.50368-.0282 1.0285.0473 1.5-.15625 1.21-.20943 2.4311-.22605 3.6562-.28125.74925.0239 1.4701-.23695 2.2188-.21875.58681.12974.85075-.50626.84375-.96875-.33224-.65359-.045-1.4285-.3125-2.0938-.23494-.67246-.14236-1.428-.25-2.125-.0148-.54835-.71068-.75172-1.0625-.34375-.34144.34514-.89289.41403-1.1562.84375-.29659.60239.62745.60317.78125 1.0625.17589.4642.11825.98059.15625 1.4688.11422.59237-.52919.6262-.9375.6875-.53675.20112-1.29.33589-1.5938-.3125-.1909-.47948-.16475-.99286-.21875-1.5-.0131-.89182-.22755-1.7684-.28125-2.6562-.0514-1.0968-.2407-2.1866-.3125-3.2812-.01-.45549-.0706-1.198-.71875-1.0625zm-.625 8.25l.3125.0312.0312.375.0312.375-.40625.125c-.21512.0636-.40325.0943-.40625.0937-.003-.00085-.088-.0531-.1875-.125-.21959-.1586-.16345-.38503.125-.6875.1626-.17028.23879-.2033.5-.1875zM431.25 374.66c-.38018.13504-.86245.69313-1.25.6875-.88.0623-.75718.91919-.125 1.2188.0833.25988.005.58789.0312.875.12288.7896-.37535 1.4249-.28125 2.2188-.0442.87031-.30695 1.7177-.34375 2.5938-.24704.90327-.24984 1.8321-.40625 2.75-.10431.82323-.69963.53271-1.2188.3125-.004-.35689-.0272-.70562-.0312-1.0625.21637-.81711-.44101-1.0556-1.0938-1.1562-.68611.0649-1.0228-.52316-.875-1.125.29488-.35103 1.036-.2534 1.5-.3125.9813.20342.9416-1.1118.4375-1.5625-.34472-.63567-1.1982-.90926-1.4375-1.5625.0956-.86642-.47971-1.7322-1.1875-2.1562-1.0885-.0764-1.9104.86306-2.3125 1.7812-.4525.13085-.90391.26657-1.3438.4375-.70889.17748-1.7197 1.407-.75 1.875.54424.14988 2.2002.52782 1.4688 1.2812-.41224.7071-1.201.71914-1.9062.53125-.72365.00063-1.5294-.35207-1.5-1.1875-.14765-.74985-.12337-1.5579-.46875-2.25-.14847-.83929-1.1008-.64297-1.1562.125-.73341.53403-.6357 1.3978-.125 2.0312.31876.72891.003 1.5776-.3125 2.25-.19091.87497-1.1559.90473-1.8438 1.1875-.33751.13104-1.6285-.0779-1.1562.65625.75312.26578 1.6525.50493 2.4375.3125.82295-.10214 1.5375-.66484 1.9375-1.375.55266-.56003 1.502-.26685 2.2188-.28125.7728-.002 1.5626.54243 2.3125.1875.21739-.56438 1.2219-1.4958 1.5312-.53125-.0526.86265.70932 1.3257 1.5 1.2188.86375-.0494.54445.61096.53125 1.125.0571.93448.65972 1.4247 1.4375 1.8125.26491.0715.545.0474.8125 0 .74793-.23513 1.5536-.5689 1.7812-1.4062.30361-.68071.31071-1.4507.53125-2.1562.17722-1.1299.406-2.26.4375-3.4062.27617-1.0383.19684-2.136.40625-3.1875.13231-.7818.2308-1.5634.3125-2.3438-.0917-.41735-.27189-.48727-.5-.40625zm-6.7812 4.1562c.15144.0185.2356.20409.25.53125.016.36409.20628.66075.4375.71875.18245.0457.16681.23882-.0312.375-.11507.0791-.3209.127-.6875.125-.57804-.003-.93643-.15276-1.25-.46875l-.1875-.1875.28125-.1875c.14178-.10831.39834-.33259.5625-.5.28494-.29065.47356-.42473.625-.40625zM490.5 370.94c-.56713.026-1.1373.11796-1.6562.25-1.0402-.0647-1.5624 1.0271-.5625 1.5625.60166 1.5343 1.5404-.31684 2.5-.1875 1.4375.27956 1.559 1.8323 1.7812 3 .0809 1.1567.41439 2.2816.75 3.375.96222 1.0695-.72072 1.7402-1.4375.90625-.61128-.66434-1.9204-1.4795-2.6562-.5625-.9036.38266-.94069 1.5903-1.6875 1.9375-1.2091.36803-1.3613-1.1188-2-1.75-.58724-.82427-1.7103-.89646-2.625-1.1875-.42913-.86865-.20548-2.3456-1.0938-2.9375-.7458.30425-2.1131 1.7022-.96875 2.3438 1.1177.96067-.48782 1.4011-1 2.0625-.73158.81456-.84849 1.936-.96875 2.9688-1.2593.69566-1.5044-.78769-1.6562-1.7188-.0981-1.1115-1.0358-.78521-1.6875-.375-.95249.38586-1.4281 1.2903-2.0938 2-.0799.64767.0372 1.3567.0312 2.0312.21646.81142 1.2024.4303 1.8125.375.9788-.40937 1.3795.62745.59375 1.2188-.53181.67603-2.2198.32293-2.0625 1.4062.54395.0636 1.1105.0432 1.6562 0 1.0905-.29799 2.2614-1.0673 2.375-2.2812.1436-1.0582 1.6676-.86544 2.5-1.0938 1.0408-.30002 2.2948-.37704 2.5312.9375.70943.74499 2.2486 1.584 3.0312.5625.79451-.48523 1.1764-1.3376 1.125-2.25-.16203-.78461 1.2688-.81314 1.625-.375.52141.85796 2.151.60478 2.9375.125.8361-.61721 1.0176-1.705 2.2188-1.7188 1.7823-.53352 3.6342-.84122 5.375-1.5 1.4104-.3073-.2099-1.1977-.5625-1.7188-1.0737-.53098-2.0081 1.6419-3.2188.5625-.93564-.71605-.87212-2.0766-1.2188-3.125-.23714-1.3573-.17721-2.9227-1.1562-4-.67242-.71491-1.586-.887-2.5312-.84375zm-6.8125 9.4688c.12573-.003.26757.0593.5.1875.43841.24193.75063.64294.75.96875-.00043.21261-.0545.22697-.375.375-.19719.091-.4214.1885-.5.1875-.18098-.002-.62438-.35688-.625-.5-.00065-.0594-.0581-.28649-.125-.46875-.11761-.32068-.0994-.31643.0625-.53125.10347-.13744.18677-.21532.3125-.21875zm6.5312.34375c.37229-.0244.59356.0918.75.375.18178.32896.0582.58095-.40625.78125-.20349.0878-.407.15925-.4375.15625-.0306-.003-.19844-.10253-.375-.21875-.27012-.17777-.3095-.26387-.3125-.46875-.003-.31541.34928-.5967.78125-.625zm-8.9375.0937c.10904-.017.20831.04.34375.15625.17999.15456.23685.27887.28125.59375.0314.21884.0265.50184 0 .625-.0486.2261-.0532.21575-.5625.21875-.64029.006-.6997-.0639-.6875-.65625.008-.37682.0118-.4782.21875-.6875.16044-.16228.29721-.23305.40625-.25zm-5.5 1.4375c.19951.0469.3879.19761.4375.4375.0656.3175.008.46223-.25.59375-.2221.1131-.73401.1508-.875.0625-.0457-.0286-.1399-.103-.1875-.1875-.068-.12114-.0555-.1794.0312-.25.0605-.0492.12539-.11985.125-.15625-.0004-.0364.0673-.16316.15625-.28125.14608-.1939.36299-.26563.5625-.21875zm9.25 1.1875c.17794-.001.32863.0609.4375.15625.18526.16231.179.40039-.0312.5625-.13509.1044-.87165.0948-1.125 0-.11272-.0421-.15563-.0987-.15625-.21875-.002-.14091.0375-.22767.28125-.34375.20425-.0976.41581-.15507.59375-.15625zM467.86 388.29c-.0958-.0625-.23767-.11699-.0948-.22157.17277-.30247.51785-.40716.82434-.51974.54779-.23732 1.0207-.64036 1.3737-1.1184.05-.33298.42384-.51355.42219-.86174.003-.47487.0311-.9616-.0846-1.426-.12837-.4257-.45147-.75199-.82649-.97395-.25667-.20149-.674-.25712-.76877-.61402-.0525-.34279.25343-.60401.36053-.90935.22325-.42151.41109-.86364.6509-1.275.25912-.2878.65892-.0156.79298.26239.18915.27771.35679.57593.45076.89748.30225.33175.57024.72087.679 1.1618.14839.31056.38316.60234.36929.96609.0003.4164.23509.78738.22034 1.2063.0133.56042.0131 1.1449-.19184 1.6741-.14001.29344-.42058.46964-.60639.73256-.31897.29554-.67037.57899-1.0797.73615-.28928.092-.45706.42565-.81934.34466-.51458.009-1.0366.079-1.5472-.004.0323.0542-.15633-.0915-.12493-.0573zM461.01 388.74c-.24268-.24958-.2952-.35543-.29788-.60032-.003-.24747.0446-.34567.2822-.58569.43829-.44275.65248-.45344 1.4091-.0705.72304.36598.9675.39912 1.0322.14002.0625-.25022.47885-.47916.87435-.4808.25006-.002.39157.0477.59183.20368.25136.19583.26349.22634.26989.67935.004.46299-.002.48055-.29042.73591-.27723.24409-.32183.25915-.66541.22476-.43718-.0439-.69954-.24407-.77073-.58844-.0516-.25001-.13942-.3097-.20523-.1397-.0209.0546-.12864.12185-.23894.1496-.20352.0514-.5488.26862-.79415.50006-.0927.0874-.25526.12855-.51863.13122-.35563.003-.40513-.0183-.67826-.29915zM441.19 379.84c-.66466.007-1.3805.5662-1.4688 1.2188.15206.75226.77698 1.4895.375 2.2812.27756 1.0131-.76147 1.3974-1.4688.8125-.4271-.97134-.64349-2.0358-1.2812-2.9062-.80411-.22762-1.1545 1.0569-1.7188 1.5.27975.75505 1.0958 1.4324 1.1875 2.375.1952.91482-.36128 1.9306-1.1562 2.4062-.68584.65472-1.6254.42074-2.4688.5625-1.0242.59857.75182.81755 1.2188.84375 1.0477.10646 2.1354-.0317 2.9062-.8125.76911-.36708.70971-1.6972 1.625-1.8438 1.5884-.0709 3.1626.24355 4.75.28125.84936.20336 2.1635-.10098 2.75.53125.002 1.1075.94078 1.7905 1.8438 2.2188.4987.13872 1.0241-.47928 1.5312-.59375.96531-.30764.67182-1.502 1.25-1.9688 1.6504-.0893 3.3163-.0704 4.9688-.0937.31463.008.40734-.43988.625-.625-.0363-.63881-.0593-1.2726-.15625-1.9062-.31819-.80653.0513-1.8446-.53125-2.5312-.83011-.22606-1.5362.53355-2.375.59375-.92616.41246-1.7065 1.2677-1.75 2.3125-.54833.89658-1.4277-.15958-1.125-.90625-.0346-.32541.0704-.70429-.0312-1-.50698-.60814-1.3947-.4094-2.0938-.5-1.0184.0406-2.0127-.17955-3.0312-.15625-.89293-.0674-1.822.0777-2.6875-.15625-1.0317-.0293-.88959-1.0382-1.0625-1.75-.18299-.13571-.40345-.18973-.625-.1875zm2 3.6875c.34308.007.66656.052 1 .0937.43082.0709.8899-.14816 1.3125 0 .97651.16608 1.9536.12685 2.9375.21875.25985-.004.44579.18471.625.34375.002.68357.00066 1.3789 0 2.0625-.0299.25767.0763.5982-.15625.78125-.0747.0513-.1583.1072-.25.125-.27065-.07-.55731-.2479-.6875-.5-.0414-.35742.0179-.70404.0312-1.0625-.007-.0927.0404-.237 0-.3125-.21278-.15067-.45387-.249-.71875-.25-.84945-.0291-1.682-.0916-2.5312-.125-.7069-.0446-1.4333.0604-2.125-.125-.26845-.0976-.61789-.0641-.78125-.34375-.23417-.27227.10362-.59695.34375-.71875.31827-.1447.65692-.19411 1-.1875zm11.281.25c.15866-.002.20935.05.28125.34375.0459.18765.0996.4172.125.5.0363.11811-.0218.15625-.1875.21875-.494.18646-.98566.16797-1.1562-.0625-.0774-.10454.0129-.43451.15625-.5625.28946-.25851.60992-.43691.78125-.4375z"/></g></g><path style="line-height:normal;text-indent:0;text-align:start;text-decoration-line:none;text-decoration-style:solid;text-decoration-color:#000;text-transform:none;block-progression:tb;white-space:normal;isolation:auto;mix-blend-mode:normal;solid-color:#000;solid-opacity:1" fill="#c09300" stroke="none" d="m 450.33984,255.59961 -0.57422,0.63477 c -1.79303,1.97852 -6.96075,4.28454 -12.44335,5.92968 -5.4826,1.64515 -11.35302,2.72852 -14.60157,2.72852 -0.81373,0 -1.6282,-0.0828 -2.39453,-0.24414 l -0.79492,-0.16797 -0.0625,0.8125 c 0,0 -2.84885,37.17742 30.07617,62.50195 l 0.19141,0.14844 0.48633,0 0.19336,-0.14844 c 32.92459,-25.32335 30.11914,-62.50195 30.11914,-62.50195 l -0.0625,-0.80469 -0.78907,0.1582 c -0.82094,0.16416 -1.58861,0.2461 -2.40234,0.2461 -3.28746,0 -9.07171,-0.96835 -14.42969,-2.55274 -5.35797,-1.58439 -10.32951,-3.8918 -11.99023,-6.06054 l -0.52149,-0.67969 z" color="#000" enable-background="accumulate" font-family="sans-serif" font-weight="400" overflow="visible"/><path style="line-height:normal;text-indent:0;text-align:start;text-decoration-line:none;text-decoration-style:solid;text-decoration-color:#000;text-transform:none;block-progression:tb;white-space:normal;isolation:auto;mix-blend-mode:normal;solid-color:#000;solid-opacity:1" stroke="none" d="m 450.26564,257.64648 c 2.35289,2.55089 7.05548,4.54666 12.18165,6.0625 5.47175,1.61804 11.27434,2.60938 14.83398,2.60938 0.61758,0 1.21839,-0.0998 1.82227,-0.18359 0.12949,2.08025 1.77784,36.04009 -29.12305,60.16211 -30.90687,-24.12685 -29.21346,-58.09435 -29.08203,-60.16407 0.60415,0.0839 1.20601,0.18555 1.82226,0.18555 3.55546,0 9.42862,-1.11181 15.01172,-2.78711 5.23398,-1.57054 10.05398,-3.56328 12.5332,-5.88477 z" color="#000" enable-background="accumulate" font-family="sans-serif" font-weight="400" overflow="visible"/><path style="line-height:normal;text-indent:0;text-align:start;text-decoration-line:none;text-decoration-style:solid;text-decoration-color:#000;text-transform:none;block-progression:tb;white-space:normal;isolation:auto;mix-blend-mode:normal;solid-color:#000;solid-opacity:1" fill="#c09300" stroke="none" d="m 450.21875,259.37891 -0.36523,0.27734 c -2.78528,2.11044 -7.87366,4.10928 -12.99024,5.53711 -5.11658,1.42783 -10.29974,2.30469 -13.24219,2.30469 -0.24005,0 -0.48749,-0.0287 -0.74609,-0.0762 l -0.66406,-0.12305 -0.008,0.67578 c -0.0144,1.41449 0.0597,2.86784 0.14649,4.18555 0.32571,4.94191 1.19104,9.89742 2.50586,14.66601 4.13899,15.00701 12.61998,27.77582 24.76562,37.44922 l 0.35547,0.28125 0.35352,-0.28125 c 12.15563,-9.68138 20.647,-22.46253 24.79492,-37.48047 1.31692,-4.76747 2.18484,-9.72072 2.51367,-14.66211 0.0857,-1.29082 0.15831,-2.71219 0.14844,-4.09765 l -0.5332,0.53515 -0.0332,-1.09765 -0.0371,0 -0.53711,0 0,0.0176 c -0.0915,0.002 -0.18145,0.008 -0.27343,0.008 -3.00559,0 -8.14952,-0.78672 -13.18164,-2.16797 -5.03213,-1.38125 -9.98189,-3.38321 -12.62305,-5.65235 l -0.34961,-0.29882 z m -0.0625,1.39257 c 2.95116,2.3902 7.78487,4.29573 12.73437,5.6543 5.11501,1.404 10.28251,2.20899 13.48243,2.20899 0.0865,0 0.17164,-0.006 0.25781,-0.008 -0.0106,1.15604 -0.0524,2.33696 -0.125,3.42969 -0.32337,4.85922 -1.17929,9.74117 -2.47656,14.4375 -4.04245,14.63608 -12.28302,27.06199 -24.05469,36.5625 -11.76096,-9.49234 -19.98994,-21.90675 -24.02344,-36.53125 -1.29518,-4.6974 -2.14846,-9.57977 -2.46875,-14.43945 -0.0729,-1.10641 -0.11234,-2.305 -0.12109,-3.47656 0.0885,0.006 0.16894,0.0254 0.25976,0.0254 3.16256,0 8.35854,-0.89731 13.54883,-2.34571 5.02026,-1.40095 9.91977,-3.31432 12.98633,-5.51758 z" color="#000" enable-background="accumulate" font-family="sans-serif" font-weight="400" overflow="visible"/><path fill="#c09300" stroke="none" d="M439.38 265.03c-5.8724 1.8448-12.229 3.0312-15.75 3.0312-.28633 0-.56336-.0423-.84375-.0937-.0142 1.3907.0699 2.8451.15625 4.1562.32298 4.9006 1.1638 9.7995 2.4688 14.531 2.765 10.025 7.5063 19.032 13.969 26.781l0-48.406zM460 264.94l0 49.25c6.794-7.9213 11.733-17.206 14.594-27.562 1.307-4.7317 2.1427-9.6313 2.4688-14.531.0853-1.2844.16596-2.6999.15625-4.0625-.28095.0176-.55937.0312-.84375.0312-3.7302 0-10.42-1.1704-16.375-3.125z"/><g stroke-width="1.576"><path style="line-height:normal;text-indent:0;text-align:start;text-decoration-line:none;text-decoration-style:solid;text-decoration-color:#000;text-transform:none;block-progression:tb;white-space:normal;isolation:auto;mix-blend-mode:normal;solid-color:#000;solid-opacity:1" fill="#c09300" stroke="none" d="m 446.58594,204.85352 c -1.39564,-0.0686 -2.31577,0.59307 -2.62696,1.31445 -0.084,0.19474 -0.0135,0.20132 -0.041,0.37695 -1.96528,-0.46445 -3.93931,-0.85584 -5.67774,-0.93164 -1.98901,-0.0867 -3.725,0.10539 -4.9707,0.93555 -0.70224,0.46817 -1.10653,1.22457 -1.41601,2.05078 -0.30949,0.82621 -0.50104,1.74485 -0.5879,2.59766 -0.0869,0.8528 -0.0871,1.61537 0.0899,2.24804 0.0885,0.31634 0.20382,0.65986 0.61523,0.90235 0.20571,0.12124 0.491,0.16861 0.72461,0.12304 0.23361,-0.0456 0.41163,-0.15274 0.5625,-0.27343 1.49529,-1.19624 2.64832,-1.19915 3.83008,-0.65821 1.18176,0.54095 2.35181,1.77088 3.31055,3.16211 l 0,0.002 c 0.68777,0.99342 1.1574,3.33456 1.0332,6.42969 -0.1242,3.09513 -0.77922,6.95271 -2.03711,11.11328 l 0,0.002 c -2.5966,8.62993 -9.81836,17.45898 -9.81836,17.45898 l -1.01758,1.23633 1.60157,0 c 2.20445,0 4.63552,-0.93229 6.56836,-1.83594 1.05065,-0.49121 1.22342,-0.63741 1.82812,-0.98437 l -1.30859,5.42773 1.43164,-0.68164 c 3.76845,-1.79624 6.41104,-4.09975 7.13867,-4.75 l 4.12891,4.33008 0.53711,-0.70899 c 1.10344,-1.46047 2.98575,-3.1852 3.46874,-3.63476 0.72837,0.70456 3.34615,2.99802 7.74024,3.60742 l 0.0273,0.0996 0.51953,0.0293 0.0254,0.002 c 0.20684,0.0122 0.49551,-0.0757 0.66993,-0.24414 0.17442,-0.16844 0.23505,-0.34955 0.26562,-0.48828 0.0611,-0.27747 0.03,-0.47019 -0.004,-0.68164 -0.063,-0.39312 -0.20045,-0.82555 -0.34766,-1.25977 1.04139,0.40057 2.17916,0.69217 3.30273,0.89063 1.93444,0.34167 3.63672,0.45117 3.63672,0.45117 l 0.35352,-1.44531 c -0.72092,-0.31829 -1.6836,-1.35355 -2.57422,-2.94727 -0.89062,-1.59371 -1.73678,-3.71483 -2.44531,-6.11523 -1.41707,-4.80081 -2.28875,-10.73151 -2.0586,-15.93555 l 0,-0.002 c 0.43597,-10.76439 -1.49409,-15.16953 -3.3164,-16.99219 -1.20757,-1.20757 -3.36731,-2.11409 -5.81055,-2.85156 -2.44324,-0.73748 -5.14723,-1.24692 -7.34766,-1.36914 l -0.002,0 -0.002,0 z" color="#000" enable-background="accumulate" font-family="sans-serif" font-weight="400" overflow="visible"/><path style="line-height:normal;text-indent:0;text-align:start;text-decoration-line:none;text-decoration-style:solid;text-decoration-color:#000;text-transform:none;block-progression:tb;white-space:normal;isolation:auto;mix-blend-mode:normal;solid-color:#000;solid-opacity:1" stroke="none" d="m 446.50784,206.36328 c 2.03378,0.11297 4.66186,0.60325 6.99219,1.30664 2.33033,0.7034 4.3858,1.68072 5.17773,2.47266 1.31509,1.31534 3.30479,5.29966 2.87696,15.86328 -0.23917,5.41999 0.65482,11.46489 2.11914,16.42578 0.73233,2.48102 1.60501,4.68949 2.57422,6.42383 0.40186,0.71911 0.82825,1.30654 1.26562,1.85351 -0.4951,-0.0626 -0.51589,-0.034 -1.09765,-0.13671 -1.83934,-0.32488 -3.89623,-0.99485 -4.4668,-1.57813 l -1.23438,0.83008 c 0,0 0.38427,0.88405 0.67969,1.74219 0.077,0.22368 0.10695,0.37662 0.16211,0.57421 -4.28428,-0.73124 -7.12695,-3.57031 -7.12695,-3.57031 l -0.50977,-0.53906 -0.54883,0.5 c 0,0 -2.03234,1.97842 -3.48632,3.66211 l -3.97071,-4.16406 -0.54687,0.50781 c 0,0 -2.60668,2.19178 -5.84961,4.04687 l 1.3418,-5.5625 -1.57618,0.99805 c 0,0 -1.35434,0.85805 -3.19531,1.71875 -1.31045,0.61267 -2.81517,1.09662 -4.23828,1.39063 1.55294,-1.97016 6.63341,-8.60581 8.99219,-16.44532 1.29059,-4.26872 1.96894,-8.23381 2.09961,-11.49023 0.13067,-3.25642 -0.22416,-5.79453 -1.30079,-7.34961 l 0.002,0 c -1.04066,-1.51011 -2.3238,-2.94444 -3.92578,-3.67773 -1.46066,-0.66861 -3.21802,-0.495 -4.91016,0.63086 -0.0555,-0.32797 -0.10123,-0.81573 -0.0371,-1.44532 0.0749,-0.73508 0.24761,-1.55212 0.49805,-2.2207 0.25044,-0.66858 0.60108,-1.16504 0.83984,-1.32422 0.7547,-0.50294 2.23273,-0.76354 4.06641,-0.68359 1.83368,0.0799 4.00854,0.46233 6.1875,1.02148 l 1.16992,0.30078 -0.24219,-1.18359 c 0,0 -0.0339,-0.28627 0.0566,-0.4961 0.0903,-0.20938 0.17146,-0.45002 1.16211,-0.40234 z" color="#000" enable-background="accumulate" font-family="sans-serif" font-weight="400" overflow="visible"/><path fill="none" d="M446.12 227.57c0 0-2.2349 16.428-6.43 21.094M449.65 227.14c0 0-.86252 16.623-3.7639 21.956M452.78 227.81c0 0 0 18.192 1.0978 21.289M456.74 228.71c0 0 .90178 15.291 4.6657 20.819"/><path fill="#c09300" stroke-width=".44" d="m 442.08,219.61 c -0.19598,-1.4508 -0.54888,-2.5878 -1.0586,-3.3328 -1.9996,-2.9013 -4.9009,-5.3321 -8.2335,-2.6661 0,0 1.137,-3.5287 3.5678,-3.6463 1.882,-0.11767 6.1556,1.4115 9.9196,7.8415 0,0 -2.7837,-0.62739 -3.4502,-0.0393 -1.2546,1.0979 -0.74495,1.8428 -0.74495,1.8428 z"/><path fill="#c09300" stroke-width=".44" d="m 432.44,209.26 c 0.27439,-0.90178 0.7057,-1.7251 1.2546,-2.078 1.9996,-1.333 6.43,-0.90177 10.86,0.23524 0,0 -0.39205,-1.9212 1.9996,-1.8036 4.2344,0.23523 10.665,1.9996 12.664,3.9992 0.47046,0.50973 1.0194,1.2547 1.4899,2.3916 l -0.0784,0 c -0.98015,-1.3721 -3.764,-1.2937 -4.4308,-1.2154 -1.0586,0.11756 -1.7251,0.0784 -3.1365,0.4312 -0.66655,0.15693 -1.686,0.3529 -2.2349,0.78422 -0.43131,0.3529 -0.7841,1.6467 -1.4506,1.6467 -1.0586,0 -0.98019,-0.27449 -1.2547,-0.58814 -0.35279,-0.43131 -0.54888,-1.0586 -0.90178,-1.0194 -1.0978,0.19608 -2.8621,-0.66644 -5.0969,-2.4308 -2.2344,-1.7644 -3.0971,-2.1956 -5.9984,-1.9996 -2.8622,0.23524 -3.7639,1.8427 -3.7639,1.8427 l 0.0784,-0.19598 z"/><circle cx="448.824" cy="210.672" r="1.176" stroke="none"/></g></g></g></g></svg>